<svg xmlns="http://www.w3.org/2000/svg" width="900" height="1171" viewBox="0 0 365.01 475.00">
<rect width="100%" height="100%" fill="white"/>
<line x1="190.55" y1="245.00" x2="206.55" y2="245.00" stroke="#111" stroke-width="1"/>
<line x1="198.55" y1="237.00" x2="198.55" y2="253.00" stroke="#111" stroke-width="1"/>
<text x="204.55" y="237.00" font-size="10" fill="#111">goal center</text>
<polygon points="138.55,445.00 198.55,445.00 198.55,406.00 138.55,406.00 138.55,445.00" fill="#c9d1d9" fill-opacity="0.22" stroke="#6a737d" stroke-width="2"/>
<text x="168.55" y="425.50" font-size="10" text-anchor="middle" fill="#6a737d">L0</text>
<polygon points="158.44,431.04 178.66,380.96 56.25,331.55 36.04,381.63 158.44,431.04" fill="#c9d1d9" fill-opacity="0.22" stroke="#6a737d" stroke-width="2"/>
<text x="107.35" y="381.30" font-size="10" text-anchor="middle" fill="#6a737d">L1</text>
<polygon points="30.00,334.95 62.29,378.23 166.49,300.49 134.19,257.21 30.00,334.95" fill="#ff695f" fill-opacity="0.42" stroke="#d9291c" stroke-width="2"/>
<text x="98.24" y="317.72" font-size="10" text-anchor="middle" fill="#d9291c">L2</text>
<polygon points="123.37,277.71 177.32,280.00 181.14,190.08 127.19,187.79 123.37,277.71" fill="#ff695f" fill-opacity="0.42" stroke="#d9291c" stroke-width="2"/>
<text x="152.25" y="233.89" font-size="10" text-anchor="middle" fill="#d9291c">L3</text>
<polygon points="258.56,30.00 198.56,30.00 198.56,69.00 258.56,69.00 258.56,30.00" fill="#c9d1d9" fill-opacity="0.22" stroke="#6a737d" stroke-width="2"/>
<text x="228.56" y="49.50" font-size="10" text-anchor="middle" fill="#6a737d">L4</text>
<polygon points="255.56,68.93 201.56,69.07 201.89,201.07 255.89,200.93 255.56,68.93" fill="#c9d1d9" fill-opacity="0.22" stroke="#6a737d" stroke-width="2"/>
<text x="228.72" y="135.00" font-size="10" text-anchor="middle" fill="#6a737d">L5</text>
<polygon points="249.16,183.17 208.61,218.83 294.47,316.45 335.01,280.79 249.16,183.17" fill="#c9d1d9" fill-opacity="0.22" stroke="#6a737d" stroke-width="2"/>
<text x="271.81" y="249.81" font-size="10" text-anchor="middle" fill="#6a737d">L6</text>
<polygon points="332.91,318.59 296.57,278.65 230.00,339.23 266.35,379.16 332.91,318.59" fill="#c9d1d9" fill-opacity="0.22" stroke="#6a737d" stroke-width="2"/>
<text x="281.46" y="328.91" font-size="10" text-anchor="middle" fill="#6a737d">L7</text>
<polygon points="148.55,320.00 248.55,320.00 248.55,280.00 188.55,280.00 188.55,170.00 148.55,170.00 148.55,320.00" fill="#7db7ff" fill-opacity="0.38" stroke="#1264b0" stroke-width="2"/>
<text x="195.22" y="256.67" font-size="11" text-anchor="middle" fill="#0b4275">object</text>
</svg>